<svg xmlns="http://www.w3.org/2000/svg" version="1.1" xmlns:xlink="http://www.w3.org/1999/xlink" width="512" height="512" x="0" y="0" viewBox="0 0 512 512" style="enable-background:new 0 0 512 512" xml:space="preserve" class=""><g><path d="M256 0C114.841 0 0 114.841 0 256s114.841 256 256 256 256-114.841 256-256S397.159 0 256 0zm0 488C128.075 488 24 383.925 24 256S128.075 24 256 24s232 104.075 232 232-104.075 232-232 232zm0-386.5c-64.335 0-116.676 52.34-116.676 116.675 0 47.923 57.352 125.555 107.316 187.834a11.998 11.998 0 0 0 18.72 0l1.548-1.929c52.302-65.164 105.768-138.209 105.768-185.905C372.676 153.84 320.335 101.5 256 101.5zm.011 277.787c-30.959-39.027-92.687-120.202-92.687-161.112 0-51.101 41.574-92.675 92.676-92.675s92.676 41.574 92.676 92.675c0 41.846-61.251 121.677-92.665 161.112zM256 147.038c-39.226 0-71.138 31.912-71.138 71.138s31.913 71.138 71.138 71.138 71.138-31.912 71.138-71.138-31.912-71.138-71.138-71.138zm0 118.275c-25.992 0-47.138-21.146-47.138-47.138s21.146-47.138 47.138-47.138 47.138 21.146 47.138 47.138-21.146 47.138-47.138 47.138z" fill="#d70006" opacity="1" data-original="#000000" class=""></path></g></svg>