<svg xmlns="http://www.w3.org/2000/svg" version="1.1" xmlns:xlink="http://www.w3.org/1999/xlink" width="512" height="512" x="0" y="0" viewBox="0 0 800 800" style="enable-background:new 0 0 512 512" xml:space="preserve" class=""><circle r="400" cx="400" cy="400" fill="#ffffff" shape="circle"></circle><g transform="matrix(0.7,0,0,0.7,119.96999816894532,119.98500709533693)"><path d="M400 525c-13.8 0-25-11.2-25-25v-75h-75c-13.8 0-25-11.2-25-25s11.2-25 25-25h75v-75c0-13.8 11.2-25 25-25s25 11.2 25 25v75h75c13.8 0 25 11.2 25 25s-11.2 25-25 25h-75v75c0 13.8-11.2 25-25 25z" fill="#d00007" opacity="1" data-original="#000000"></path><path d="M400 758.3c-39.2 0-54.6-6.7-80-17.8-53.5-23.4-99.7-53.4-137.3-89.2-53.1-50.6-87-111.1-100.7-179.7-2.7-13.5 6.1-26.7 19.6-29.4s26.7 6.1 29.4 19.6C156.5 590 258.7 659.2 340 694.7c22.8 9.9 31.3 13.7 60 13.7 28.8 0 37.3-3.7 60-13.7 21.1-9.2 41.4-19.8 60.1-31.5 11.7-7.3 27.1-3.7 34.4 8s3.7 27.1-8 34.4c-20.8 12.9-43.1 24.6-66.5 34.8-25.4 11.2-40.8 17.9-80 17.9zm233.3-136.5c-5.4 0-10.9-1.8-15.5-5.4-10.8-8.5-12.7-24.3-4.2-35.1 40.7-51.6 61.3-112.7 61.3-181.6v-52.5c0-53.3 0-91.8-1.5-119.9-1.8-33.9-5.5-41.9-6.6-43.5-1.2-1.5-7.4-7.6-38.6-20.2-25.9-10.5-63.9-23.5-112-39.9l-19.1-6.5c-49.6-17-74.4-25.5-97.3-25.5s-47.8 8.5-97.3 25.5l-19.1 6.5c-48.1 16.5-86 29.4-112 39.9-31.1 12.6-37.4 18.6-38.6 20.2-1.1 1.6-4.7 9.6-6.5 43.5-1.5 28.2-1.5 66.7-1.5 119.9 0 13.8-11.2 25-25 25s-25-11.2-25-25c0-122.1 0-167.8 17.1-192.2 17.3-24.6 60.3-39.3 175.3-78.7l19.1-6.5c54.8-18.8 82.3-28.2 113.5-28.2s58.7 9.4 113.5 28.2l19.1 6.5c115 39.4 158 54.1 175.3 78.7C725 179.4 725 225.1 725 347.2v52.5c0 80.4-24.2 151.9-72 212.6-5 6.2-12.3 9.5-19.7 9.5z" fill="#d00007" opacity="1" data-original="#000000"></path></g></svg>