<svg xmlns="http://www.w3.org/2000/svg" version="1.1" xmlns:xlink="http://www.w3.org/1999/xlink" width="512" height="512" x="0" y="0" viewBox="0 0 512 512" style="enable-background:new 0 0 512 512" xml:space="preserve" class=""><circle r="256" cx="256" cy="256" fill="#ffffff" shape="circle"></circle><g transform="matrix(0.7,0,0,0.7,76.8001636505127,76.79985322948977)"><path d="M442.016 46.932h-16.239L400.104 3.683A7.517 7.517 0 0 0 393.635 0h-275.27a7.521 7.521 0 0 0-6.469 3.683l-25.67 43.248h-16.24a7.523 7.523 0 0 0-7.523 7.523v47.966a7.523 7.523 0 0 0 7.523 7.523h13.818l7.876 68.209h-9.201a7.52 7.52 0 0 0-5.616 2.518 7.53 7.53 0 0 0-1.858 5.868l23.15 200.477a7.524 7.524 0 0 0 7.474 6.661h10.939l12.895 111.662a7.524 7.524 0 0 0 7.474 6.661h45.633a7.523 7.523 0 1 0 0-15.046h-38.928l-11.926-103.277h248.572l-11.926 103.277H212.661a7.523 7.523 0 1 0 0 15.046h162.404a7.521 7.521 0 0 0 7.473-6.661l12.894-111.662h10.939a7.52 7.52 0 0 0 7.473-6.661l23.15-200.477a7.525 7.525 0 0 0-7.474-8.386h-9.201l7.877-68.209h13.819a7.522 7.522 0 0 0 7.523-7.523V54.455a7.521 7.521 0 0 0-7.522-7.523zM421.079 193.2l-21.413 185.431H112.333L90.92 193.2h240.846a7.522 7.522 0 0 0 7.523-7.523 7.522 7.522 0 0 0-7.523-7.523h-224.94l-7.876-68.209h314.1l-7.876 68.209h-43.316a7.522 7.522 0 0 0-7.523 7.523 7.522 7.522 0 0 0 7.523 7.523h59.221zM77.509 94.897V61.978H137.1a7.523 7.523 0 1 0 0-15.046h-33.379l18.926-31.885h266.705l18.925 31.885H167.193a7.523 7.523 0 1 0 0 15.046h267.298v32.919H77.509z" fill="#d00007" opacity="1" data-original="#000000" class=""></path><path d="M262.931 222.659a7.576 7.576 0 0 0-.98-.148 43.105 43.105 0 0 0-5.951-.427c-28.013 0-50.804 27.022-50.804 60.236 0 33.206 22.779 60.223 50.784 60.236l.014.001.012-.001c28.01-.004 50.798-27.023 50.798-60.236 0-30.425-19.128-55.639-43.873-59.661zm-10.848 104.574c-17.88-2.476-31.839-21.67-31.839-44.914 0-21.036 11.433-38.761 26.859-43.772-6.168 13.753-8.661 33.283 5.711 51.956 10.493 13.635 3.251 29.859-.731 36.73zm18.012-3.389c.328-.924.646-1.867.939-2.846 4.44-14.833 2.261-28.55-6.297-39.67-13.842-17.984-5.174-35.654-.366-42.933 15.69 4.776 27.386 22.653 27.386 43.926 0 18.593-8.935 34.595-21.662 41.523z" fill="#d00007" opacity="1" data-original="#000000" class=""></path></g></svg>