<svg xmlns="http://www.w3.org/2000/svg" version="1.1" xmlns:xlink="http://www.w3.org/1999/xlink" width="512" height="512" x="0" y="0" viewBox="0 0 512 512" style="enable-background:new 0 0 512 512" xml:space="preserve" class=""><g><path d="M256 0C114.841 0 0 114.841 0 256s114.841 256 256 256 256-114.841 256-256S397.159 0 256 0zm0 488C128.075 488 24 383.925 24 256S128.075 24 256 24s232 104.075 232 232-104.075 232-232 232zm120.312-337.5H135.687c-16.094 0-29.188 13.094-29.188 29.188v152.625c0 16.094 13.093 29.188 29.188 29.188h240.625c16.094 0 29.188-13.094 29.188-29.188V179.688c0-16.094-13.094-29.188-29.188-29.188zm-18.089 24L256 255.677 153.776 174.5zm18.089 163H135.687a5.194 5.194 0 0 1-5.188-5.188v-145.65l118.038 93.735c2.185 1.735 4.824 2.603 7.462 2.603s5.278-.867 7.462-2.603L381.5 186.662v145.65a5.194 5.194 0 0 1-5.188 5.188z" fill="#d70006" opacity="1" data-original="#000000" class=""></path></g></svg>