<svg xmlns="http://www.w3.org/2000/svg" version="1.1" xmlns:xlink="http://www.w3.org/1999/xlink" width="512" height="512" x="0" y="0" viewBox="0 0 512 512" style="enable-background:new 0 0 512 512" xml:space="preserve" class=""><g><path d="M96.4 175.667c.774-80.997 106.566-108.759 147.491-40.348 3.873-20.903 22.235-36.786 44.242-36.786h31.327l3.146-3.146c5.858-5.858 5.855-15.362 0-21.214l-45.444-45.444c-5.858-5.858-15.354-5.857-21.212-.001l-17.737 17.735a142.823 142.823 0 0 0-15.413-6.396V15c0-8.284-6.716-15-15-15h-64.267c-8.284 0-15 6.716-15 15v25.067a142.823 142.823 0 0 0-15.413 6.396L95.383 28.729c-5.857-5.857-15.355-5.856-21.212.001L28.727 74.174c-5.859 5.856-5.853 15.361 0 21.214l17.737 17.734a142.857 142.857 0 0 0-6.396 15.411H15c-8.284 0-15 6.716-15 15V207.8c0 8.284 6.716 15 15 15h25.067a143.06 143.06 0 0 0 6.396 15.411l-17.737 17.734c-5.858 5.858-5.854 15.362 0 21.214l45.444 45.444c5.857 5.857 15.355 5.858 21.212.001l3.15-3.15v-31.321c0-22.008 15.882-40.37 36.786-44.242-23.292-13.804-38.918-39.184-38.918-68.224z" fill="#1a6bd6" opacity="1" data-original="#000000" class=""></path><path d="M497 273.134h-24.221a158.187 158.187 0 0 0-11.354-27.366l17.141-17.142c5.858-5.857 5.858-15.355 0-21.213l-45.444-45.444c-5.852-5.853-15.354-5.859-21.213 0l-17.141 17.142a158.111 158.111 0 0 0-27.368-11.356v-24.221c0-8.284-6.716-15-15-15h-64.267c-8.284 0-15 6.716-15 15v24.221a158.209 158.209 0 0 0-27.368 11.356l-17.14-17.142c-7.46-7.458-17.188-4.026-21.213 0l-45.444 45.444c-5.858 5.857-5.858 15.355 0 21.213l17.142 17.142a158.21 158.21 0 0 0-11.355 27.366h-24.221c-8.284 0-15 6.716-15 15V352.4c0 8.284 6.716 15 15 15h24.221a158.223 158.223 0 0 0 11.354 27.365l-17.141 17.142c-5.858 5.857-5.858 15.355 0 21.213l45.444 45.444c5.852 5.853 15.356 5.858 21.213 0l17.14-17.142a158.144 158.144 0 0 0 27.368 11.356V497c0 8.284 6.716 15 15 15H352.4c8.284 0 15-6.716 15-15v-24.221a158.172 158.172 0 0 0 27.368-11.355l17.14 17.141c5.852 5.853 15.356 5.858 21.213 0l45.444-45.444c5.858-5.857 5.858-15.355 0-21.213l-17.142-17.142a158.168 158.168 0 0 0 11.355-27.365H497c8.284 0 15-6.716 15-15v-64.267c0-8.284-6.716-15-15-15zM320.267 415.6c-52.567 0-95.333-42.767-95.333-95.333 5.237-126.472 185.449-126.435 190.667.001-.001 52.565-42.768 95.332-95.334 95.332z" fill="#1a6bd6" opacity="1" data-original="#000000" class=""></path><path d="M321.629 254.968c-36.482-.866-66.743 28.826-66.696 65.298 3.586 86.666 127.088 86.654 130.667 0 0-35.567-28.575-64.568-63.971-65.298zM126.4 175.667a48.944 48.944 0 0 0 5.62 22.811 45.034 45.034 0 0 1 8.735-12.279l45.443-45.443c3.545-3.546 7.789-6.473 12.418-8.664-32.089-17.414-72.574 6.895-72.216 43.575z" fill="#1a6bd6" opacity="1" data-original="#000000" class=""></path></g></svg>