<svg xmlns="http://www.w3.org/2000/svg" xmlns:xlink="http://www.w3.org/1999/xlink" width="500" zoomAndPan="magnify" viewBox="0 0 375 374.999991" height="500" preserveAspectRatio="xMidYMid meet" version="1.2"><defs><filter x="0%" y="0%" width="100%" filterUnits="objectBoundingBox" id="8f37a2940d" height="100%"><feColorMatrix values="0 0 0 0 1 0 0 0 0 1 0 0 0 0 1 0 0 0 1 0" type="matrix" in="SourceGraphic"/></filter><clipPath id="5c8fa13db7"><path d="M 6.515625 138 L 242 138 L 242 374 L 6.515625 374 Z M 6.515625 138 "/></clipPath><clipPath id="a92c6c9e8f"><path d="M 216 109 L 344.765625 109 L 344.765625 238 L 216 238 Z M 216 109 "/></clipPath><clipPath id="0d07533aa1"><rect x="0" width="351" y="0" height="375"/></clipPath></defs><g id="65e7a52a66"><g mask="url(#ee42b6ce42)" transform="matrix(1,0,0,1,12,0)"><g clip-path="url(#0d07533aa1)"><g clip-rule="nonzero" clip-path="url(#5c8fa13db7)"><path style=" stroke:none;fill-rule:nonzero;fill:#ffffff;fill-opacity:1;" d="M 238.285156 238.101562 L 215.167969 230.605469 C 213.296875 223.109375 210.171875 216.238281 206.421875 209.363281 L 217.667969 187.5 C 218.917969 185.625 218.292969 183.75 217.042969 181.878906 L 197.675781 163.136719 C 196.429688 161.886719 193.929688 161.261719 192.054688 162.511719 L 170.191406 173.757812 C 163.316406 170.007812 156.445312 166.882812 149.574219 165.011719 L 142.078125 141.269531 C 141.453125 139.398438 139.578125 138.148438 137.703125 138.148438 L 110.21875 138.148438 C 108.34375 138.148438 106.46875 139.398438 105.84375 141.269531 L 98.347656 165.011719 C 90.851562 166.882812 83.980469 170.007812 77.734375 173.757812 L 55.867188 162.511719 C 53.992188 161.261719 52.121094 161.886719 50.246094 163.136719 L 30.878906 182.503906 C 29.628906 183.75 29.003906 186.25 30.253906 188.125 L 41.5 209.988281 C 37.75 216.863281 34.628906 223.734375 32.753906 231.230469 L 9.640625 238.101562 C 7.765625 238.726562 6.515625 240.601562 6.515625 242.472656 L 6.515625 269.960938 C 6.515625 271.835938 7.765625 273.710938 9.640625 274.335938 L 32.753906 281.832031 C 34.628906 289.328125 37.75 296.199219 41.5 303.070312 L 30.253906 324.3125 C 29.003906 326.1875 29.628906 328.058594 30.878906 329.933594 L 50.246094 349.300781 C 51.496094 350.550781 53.992188 351.175781 55.867188 349.925781 L 77.109375 338.679688 C 83.980469 342.429688 90.851562 345.550781 98.347656 347.425781 L 105.84375 370.539062 C 106.46875 372.414062 108.34375 373.664062 110.21875 373.664062 L 137.703125 373.664062 C 139.578125 373.664062 141.453125 372.414062 142.078125 370.539062 L 149.574219 347.425781 C 157.070312 345.550781 163.941406 342.429688 170.816406 338.679688 L 192.054688 349.925781 C 193.929688 351.175781 195.804688 350.550781 197.675781 349.300781 L 217.042969 329.933594 C 218.292969 328.683594 218.917969 326.1875 217.667969 324.3125 L 206.421875 303.070312 C 210.171875 296.199219 213.296875 289.328125 215.167969 281.832031 L 238.285156 274.335938 C 240.15625 273.710938 241.40625 271.835938 241.40625 269.960938 L 241.40625 242.472656 C 241.40625 240.601562 240.15625 238.726562 238.285156 238.101562 Z M 232.035156 266.214844 L 209.546875 273.085938 C 208.296875 273.710938 207.046875 274.960938 206.421875 276.207031 C 204.550781 284.332031 200.800781 292.453125 197.050781 299.949219 C 196.429688 301.199219 196.429688 303.070312 197.050781 304.320312 L 207.671875 324.9375 L 193.304688 339.304688 L 172.6875 328.683594 C 171.4375 328.058594 169.566406 328.058594 168.316406 328.683594 C 160.820312 333.058594 153.324219 336.179688 144.578125 338.679688 C 142.703125 339.304688 141.453125 340.554688 141.453125 341.804688 L 134.582031 364.292969 L 113.964844 364.292969 L 106.46875 342.429688 C 105.84375 341.179688 104.59375 339.929688 103.347656 339.304688 C 95.226562 337.429688 87.101562 333.683594 79.605469 329.308594 C 78.359375 328.683594 76.484375 328.683594 75.234375 329.308594 L 54.617188 339.929688 L 40.25 325.5625 L 50.871094 304.945312 C 51.496094 303.695312 51.496094 301.820312 50.871094 300.574219 C 46.496094 293.074219 43.375 285.578125 41.5 276.832031 C 40.875 274.960938 39.625 273.710938 38.375 273.710938 L 15.886719 266.839844 L 15.886719 246.222656 L 38.375 239.351562 C 39.625 238.726562 40.875 237.476562 41.5 236.226562 C 43.375 228.105469 47.121094 219.984375 50.871094 213.113281 C 51.496094 211.863281 51.496094 209.988281 50.871094 208.738281 L 39.625 187.5 L 53.992188 173.132812 L 75.234375 184.375 C 76.484375 185 78.359375 185 79.605469 184.375 C 86.480469 180.003906 94.601562 176.878906 102.722656 175.003906 C 104.59375 174.382812 105.84375 173.132812 105.84375 171.882812 L 112.714844 149.394531 L 133.332031 149.394531 L 140.203125 171.882812 C 140.828125 173.132812 142.078125 174.382812 143.328125 175.003906 C 151.449219 176.878906 159.570312 180.003906 166.441406 184.375 C 167.691406 185 169.566406 185 170.816406 184.375 L 192.054688 173.132812 L 206.421875 187.5 L 195.179688 208.738281 C 194.554688 209.988281 194.554688 211.863281 195.179688 213.113281 C 199.550781 220.609375 202.675781 228.105469 204.550781 236.226562 C 205.171875 238.101562 206.421875 239.351562 207.671875 239.351562 L 230.164062 246.222656 L 230.164062 266.214844 Z M 232.035156 266.214844 "/></g><path style=" stroke:none;fill-rule:nonzero;fill:#ffffff;fill-opacity:1;" d="M 123.960938 191.871094 C 88.351562 191.871094 59.617188 220.609375 59.617188 256.21875 C 59.617188 291.828125 88.351562 320.5625 123.960938 320.5625 C 159.570312 320.5625 188.304688 291.828125 188.304688 256.21875 C 188.304688 221.234375 159.570312 191.871094 123.960938 191.871094 Z M 123.960938 311.191406 C 93.351562 311.191406 68.988281 286.828125 68.988281 256.21875 C 68.988281 225.605469 93.351562 201.242188 123.960938 201.242188 C 154.570312 201.242188 178.9375 225.605469 178.9375 256.21875 C 178.9375 286.828125 153.949219 311.191406 123.960938 311.191406 Z M 123.960938 311.191406 "/><path style=" stroke:none;fill-rule:nonzero;fill:#ffffff;fill-opacity:1;" d="M 103.347656 76.300781 L 116.464844 83.796875 C 116.464844 88.171875 117.089844 93.167969 118.339844 97.542969 L 108.34375 108.785156 C 107.09375 110.035156 107.09375 112.535156 107.71875 114.410156 L 117.089844 129.402344 C 118.339844 131.277344 120.214844 131.902344 122.085938 131.277344 L 136.457031 127.527344 C 139.578125 130.652344 143.328125 133.148438 147.699219 135.648438 L 148.949219 150.640625 C 148.949219 152.515625 150.824219 154.390625 152.699219 155.015625 L 170.191406 159.386719 L 171.4375 159.386719 C 173.3125 159.386719 174.5625 158.761719 175.1875 156.890625 L 182.683594 143.769531 C 187.058594 143.769531 192.054688 143.144531 196.429688 141.894531 L 207.671875 151.890625 C 208.921875 153.140625 211.421875 153.140625 213.296875 152.515625 L 228.289062 143.144531 C 230.164062 141.894531 230.785156 140.023438 230.164062 138.148438 L 226.414062 123.78125 C 229.539062 120.65625 232.035156 116.90625 234.535156 112.535156 L 249.527344 111.285156 C 251.402344 111.285156 253.277344 109.410156 253.902344 107.535156 L 258.273438 90.046875 C 258.898438 88.171875 257.648438 85.671875 256.398438 85.046875 L 243.28125 76.925781 C 243.28125 72.554688 242.65625 68.179688 241.40625 63.808594 L 251.402344 52.5625 C 252.652344 51.3125 252.652344 48.8125 252.027344 46.941406 L 242.65625 31.945312 C 241.40625 30.074219 239.53125 29.449219 237.660156 30.074219 L 222.664062 33.820312 C 219.542969 30.699219 215.792969 28.199219 212.046875 25.699219 L 210.796875 10.707031 C 210.796875 8.832031 208.921875 6.957031 207.046875 6.332031 L 189.554688 1.960938 C 187.683594 1.335938 185.183594 2.585938 184.558594 3.835938 L 176.4375 16.953125 C 172.0625 16.953125 167.691406 17.578125 163.316406 18.828125 L 152.074219 8.832031 C 150.824219 7.582031 148.324219 7.582031 146.449219 8.207031 L 131.457031 18.203125 C 129.582031 19.453125 128.960938 21.328125 129.582031 23.199219 L 132.707031 38.195312 C 129.582031 41.316406 127.085938 45.066406 124.585938 48.8125 L 109.59375 50.0625 C 107.71875 50.0625 105.84375 51.9375 105.21875 53.8125 L 100.847656 71.304688 C 100.847656 73.179688 101.472656 75.050781 103.347656 76.300781 Z M 113.964844 59.433594 L 128.335938 58.808594 C 130.207031 58.808594 131.457031 57.558594 132.082031 56.3125 C 134.582031 51.3125 137.703125 46.941406 141.453125 43.191406 C 142.703125 41.941406 143.328125 40.066406 142.703125 38.820312 L 139.578125 25.074219 L 148.949219 19.453125 L 159.570312 28.824219 C 160.820312 30.074219 162.695312 30.074219 163.941406 30.074219 C 168.941406 28.199219 174.5625 27.574219 179.5625 27.574219 C 181.433594 27.574219 182.683594 26.949219 183.308594 25.074219 L 190.804688 12.582031 L 201.425781 15.078125 L 202.675781 29.449219 C 202.675781 31.320312 203.925781 32.570312 205.171875 33.195312 C 210.171875 35.695312 213.917969 38.820312 218.292969 42.566406 C 218.917969 43.816406 220.792969 44.441406 222.664062 43.816406 L 236.410156 40.066406 L 242.03125 49.4375 L 232.660156 60.058594 C 231.410156 61.933594 231.410156 63.183594 231.410156 65.054688 C 233.285156 70.054688 233.910156 75.675781 233.910156 80.675781 C 233.910156 82.546875 234.535156 83.796875 236.410156 84.421875 L 248.902344 91.917969 L 246.40625 102.539062 L 232.035156 103.164062 C 230.164062 103.164062 228.914062 104.414062 228.289062 105.664062 C 225.789062 110.660156 222.664062 115.035156 218.917969 118.78125 C 217.667969 120.03125 217.042969 121.90625 217.667969 123.15625 L 220.792969 136.898438 L 211.421875 142.519531 L 200.800781 133.148438 C 199.550781 131.902344 197.675781 131.902344 196.429688 131.902344 C 191.429688 133.773438 185.808594 134.398438 180.183594 134.398438 C 178.3125 134.398438 177.0625 135.023438 176.4375 136.898438 L 168.941406 150.015625 L 158.320312 147.519531 L 157.695312 133.148438 C 157.695312 131.277344 156.445312 130.027344 155.195312 129.402344 C 150.199219 126.902344 145.828125 123.78125 142.078125 120.03125 C 140.828125 118.78125 138.953125 118.15625 137.703125 118.78125 L 123.960938 121.90625 L 118.339844 112.535156 L 127.710938 101.914062 C 128.960938 100.664062 128.960938 98.789062 128.960938 97.542969 C 127.085938 92.542969 126.460938 86.921875 126.460938 81.300781 C 126.460938 79.425781 125.835938 78.175781 123.960938 77.550781 L 112.09375 70.054688 Z M 113.964844 59.433594 "/><path style=" stroke:none;fill-rule:nonzero;fill:#ffffff;fill-opacity:1;" d="M 169.566406 123.78125 C 172.6875 124.402344 176.4375 125.027344 180.183594 125.027344 C 200.175781 125.027344 217.667969 111.285156 222.664062 91.917969 C 225.164062 80.675781 223.914062 68.804688 217.667969 58.808594 C 211.421875 48.8125 202.050781 41.941406 190.804688 38.820312 C 187.683594 38.195312 183.933594 37.570312 180.183594 37.570312 C 160.195312 37.570312 142.703125 51.3125 137.703125 70.679688 C 135.207031 81.921875 136.457031 93.792969 142.703125 103.789062 C 148.949219 113.785156 158.320312 120.65625 169.566406 123.78125 Z M 146.449219 73.179688 C 150.199219 57.558594 163.941406 46.941406 179.5625 46.941406 C 182.058594 46.941406 185.183594 47.566406 187.683594 48.1875 C 196.429688 50.0625 203.925781 55.6875 208.921875 63.808594 C 213.917969 71.929688 215.167969 80.675781 212.671875 90.046875 C 208.921875 105.664062 195.179688 116.28125 179.5625 116.28125 C 177.0625 116.28125 173.9375 115.660156 171.4375 115.035156 C 162.695312 112.535156 155.195312 106.914062 150.199219 98.789062 C 145.828125 91.292969 143.953125 81.921875 146.449219 73.179688 Z M 146.449219 73.179688 "/><g clip-rule="nonzero" clip-path="url(#a92c6c9e8f)"><path style=" stroke:none;fill-rule:nonzero;fill:#ffffff;fill-opacity:1;" d="M 341.359375 170.632812 L 330.742188 165.636719 C 330.117188 162.511719 329.492188 159.386719 328.242188 156.265625 L 335.113281 146.894531 C 336.363281 145.019531 336.363281 143.144531 335.113281 141.269531 L 326.367188 130.027344 C 325.117188 128.152344 323.246094 127.527344 320.746094 128.152344 L 310.125 131.902344 C 307.625 130.027344 304.503906 128.152344 301.378906 126.902344 L 300.128906 115.035156 C 299.503906 113.160156 298.253906 111.285156 296.382812 111.285156 L 282.011719 109.410156 C 280.140625 109.410156 278.265625 110.035156 277.015625 111.910156 L 272.019531 122.53125 C 268.894531 123.15625 265.769531 123.78125 262.648438 125.027344 L 253.277344 118.15625 C 251.402344 116.90625 249.527344 116.90625 247.652344 118.15625 L 236.410156 126.902344 C 234.535156 128.152344 233.910156 130.027344 234.535156 132.527344 L 238.285156 143.144531 C 236.410156 145.644531 234.535156 148.769531 233.285156 151.890625 L 222.039062 153.765625 C 220.167969 154.390625 218.292969 155.640625 218.292969 157.515625 L 216.417969 171.882812 C 216.417969 173.757812 217.042969 175.628906 218.917969 176.878906 L 229.539062 181.878906 C 230.164062 185 230.785156 188.75 232.035156 191.871094 L 225.164062 200.617188 C 223.914062 202.492188 223.914062 204.367188 225.164062 206.242188 L 233.910156 217.484375 C 235.160156 219.359375 237.035156 219.984375 238.90625 219.359375 L 249.527344 215.613281 C 252.027344 217.484375 255.152344 219.359375 258.273438 220.609375 L 260.148438 231.855469 C 260.773438 233.730469 262.023438 235.601562 263.898438 235.601562 L 278.265625 237.476562 L 278.890625 237.476562 C 280.765625 237.476562 282.636719 236.226562 283.261719 234.976562 L 288.261719 224.359375 C 291.382812 223.734375 295.132812 223.109375 298.253906 221.859375 L 307.625 228.730469 C 309.5 229.980469 311.375 229.980469 313.25 228.730469 L 324.492188 219.984375 C 326.367188 218.734375 326.992188 216.863281 326.367188 214.363281 L 322.621094 203.742188 C 324.492188 201.242188 326.367188 198.121094 327.617188 194.996094 L 338.863281 193.121094 C 340.734375 192.496094 342.609375 191.25 342.609375 189.375 L 344.484375 175.003906 C 344.484375 173.132812 343.234375 171.257812 341.359375 170.632812 Z M 333.238281 184.375 L 322.621094 186.25 C 320.746094 186.25 319.496094 187.5 318.871094 189.375 C 317.621094 193.121094 315.121094 196.871094 312.625 199.996094 C 311.375 201.242188 311.375 203.117188 312 204.367188 L 315.746094 214.363281 L 310.125 218.734375 L 301.378906 212.488281 C 300.128906 211.238281 298.253906 211.238281 297.007812 211.863281 C 293.257812 213.738281 288.886719 214.363281 284.511719 214.988281 C 282.636719 214.988281 281.386719 216.238281 280.765625 217.484375 L 276.390625 226.855469 L 268.894531 226.855469 L 267.019531 216.238281 C 267.019531 214.363281 265.769531 213.113281 263.898438 212.488281 C 260.148438 210.613281 256.398438 208.738281 253.277344 206.242188 C 252.027344 204.992188 250.152344 204.992188 248.902344 205.617188 L 238.90625 209.363281 L 234.535156 203.742188 L 240.78125 194.996094 C 242.03125 193.746094 242.03125 191.871094 241.40625 190.625 C 239.53125 186.875 238.90625 182.503906 238.285156 178.128906 C 238.285156 176.253906 237.035156 175.003906 235.785156 174.382812 L 225.789062 169.382812 L 227.039062 161.886719 L 237.660156 160.011719 C 239.53125 160.011719 240.78125 158.761719 241.40625 156.890625 C 243.28125 153.140625 245.15625 149.394531 247.652344 146.269531 C 248.902344 145.019531 248.902344 143.144531 248.277344 141.894531 L 244.53125 131.902344 L 250.152344 127.527344 L 258.898438 133.773438 C 260.148438 135.023438 262.023438 135.023438 263.273438 134.398438 C 267.019531 132.527344 271.394531 131.902344 275.140625 131.277344 C 277.015625 131.277344 278.265625 130.027344 278.890625 128.777344 L 283.261719 119.40625 L 290.757812 120.65625 L 292.632812 131.277344 C 292.632812 133.148438 293.882812 134.398438 295.757812 135.023438 C 299.503906 136.273438 303.253906 138.773438 306.378906 141.269531 C 307.625 142.519531 309.5 142.519531 310.75 141.894531 L 320.746094 138.148438 L 325.117188 143.769531 L 318.871094 152.515625 C 317.621094 153.765625 317.621094 155.640625 318.246094 156.890625 C 320.121094 160.636719 320.746094 165.011719 321.371094 168.757812 C 321.371094 170.632812 322.621094 171.882812 323.867188 172.507812 L 333.863281 176.878906 Z M 333.238281 184.375 "/></g><path style=" stroke:none;fill-rule:nonzero;fill:#ffffff;fill-opacity:1;" d="M 280.140625 137.523438 C 272.019531 137.523438 265.144531 140.023438 258.898438 145.019531 C 251.402344 150.640625 246.40625 159.386719 245.15625 168.757812 C 243.90625 178.128906 246.40625 187.5 252.027344 194.996094 C 258.898438 204.367188 269.519531 209.363281 280.765625 209.363281 C 288.886719 209.363281 295.757812 206.867188 302.003906 201.867188 C 317.621094 190 320.746094 167.507812 308.875 151.890625 C 302.003906 143.144531 291.382812 137.523438 280.140625 137.523438 Z M 295.757812 194.371094 C 291.382812 198.121094 285.761719 199.996094 280.140625 199.996094 C 272.019531 199.996094 263.898438 196.246094 258.898438 189.375 C 254.527344 183.75 252.652344 176.878906 253.902344 170.007812 C 255.152344 163.136719 258.273438 156.890625 263.898438 152.515625 C 268.269531 148.769531 273.890625 146.894531 279.515625 146.894531 C 287.636719 146.894531 295.757812 150.640625 300.753906 157.515625 C 310.125 169.382812 307.625 185.625 295.757812 194.371094 Z M 295.757812 194.371094 "/></g><mask id="ee42b6ce42"><g filter="url(#8f37a2940d)"><rect x="0" width="375" y="0" height="374.999991" style="fill:#000000;fill-opacity:0.03;stroke:none;"/></g></mask></g></g></svg>