<svg xmlns="http://www.w3.org/2000/svg" version="1.1" xmlns:xlink="http://www.w3.org/1999/xlink" width="512" height="512" x="0" y="0" viewBox="0 0 467.168 467.168" style="enable-background:new 0 0 512 512" xml:space="preserve" class=""><circle r="233.584" cx="233.584" cy="233.584" fill="#d00007" shape="circle"></circle><g transform="matrix(0.7,0,0,0.7,70.07535095214845,70.07534637451172)"><path d="M76.849 210.531C34.406 210.531 0 244.937 0 287.388c0 42.438 34.406 76.847 76.849 76.847 30.989 0 57.635-18.387 69.789-44.819l18.258 14.078s134.168.958 141.538-3.206c0 0-16.65-45.469 4.484-64.688 2.225-2.024 5.021-4.332 8.096-6.777-3.543 8.829-5.534 18.45-5.534 28.558 0 42.446 34.403 76.846 76.846 76.846 42.443 0 76.843-34.415 76.843-76.846 0-42.451-34.408-76.849-76.843-76.849-.697 0-1.362.088-2.056.102 5.551-3.603 9.093-5.865 9.093-5.865l-5.763-5.127s16.651-3.837 12.816-12.167c-3.848-8.33-44.19-58.28-44.19-58.28s7.146-15.373-7.634-26.261l-7.098 15.371s-18.093-12.489-25.295-10.084c-7.205 2.398-18.005 3.603-21.379 8.884l-3.358 3.124s-.95 5.528 4.561 13.693c0 0 55.482 17.05 58.119 29.537 0 0 3.848 7.933-12.728 9.844l-3.354 4.328-8.896.479-16.082-36.748s-15.381 4.082-23.299 10.323l1.201 6.24s-64.599-43.943-125.362 21.137c0 0-44.909 12.966-76.37-26.897 0 0-.479-12.968-76.367-10.565l5.286 5.524s-5.286.479-7.444 3.841c-2.158 3.358 1.2 6.961 18.494 6.961 0 0 39.153 44.668 69.17 42.032l42.743 20.656 18.975 32.42s.034 2.785.23 7.045c-4.404.938-9.341 1.979-14.579 3.09-10.155-30.567-38.928-52.638-72.911-52.638zm313.476 23.55c29.395 0 53.299 23.912 53.299 53.299 0 29.39-23.912 53.294-53.299 53.294-29.394 0-53.294-23.912-53.294-53.294 0-29.387 23.901-53.299 53.294-53.299zM76.849 340.683c-29.387 0-53.299-23.913-53.299-53.295 0-29.395 23.912-53.299 53.299-53.299 22.592 0 41.896 14.154 49.636 34.039-28.26 6.011-56.31 11.99-56.31 11.99l3.619 19.933 55.339-2.444c-4.768 24.509-26.388 43.076-52.284 43.076zm92.303-44.848c1.571 5.334 3.619 9.574 6.312 11.394l-24.696.966a77.72 77.72 0 0 0 2.338-11.662l16.046-.698z" fill="#ffffff" opacity="1" data-original="#000000" class=""></path></g></svg>