<svg xmlns="http://www.w3.org/2000/svg" version="1.1" xmlns:xlink="http://www.w3.org/1999/xlink" width="512" height="512" x="0" y="0" viewBox="0 0 394.648 394.648" style="enable-background:new 0 0 512 512" xml:space="preserve"><circle r="197.324" cx="197.324" cy="197.324" fill="#d00007" shape="circle"></circle><g transform="matrix(0.7,0,0,0.7,59.19723057746887,59.19720611572268)"><path d="M391.909 145.036c-.938-2.731-4.263-4.855-7.039-4.855h-36.061c-2.775 0-6.101 2.124-7.04 4.855-.918 2.673-1.604 5.058-2.06 7.301l-24.088-66.641c-3.973-10.989-14.495-18.372-26.179-18.372H105.209c-11.685 0-22.205 7.383-26.18 18.374L54.94 152.345c-.457-2.245-1.143-4.633-2.062-7.309-.938-2.731-4.264-4.855-7.039-4.855H9.778c-2.775 0-6.101 2.124-7.039 4.855-3.652 10.633-3.65 16.72.001 27.354.938 2.731 4.264 4.855 7.039 4.855H45.84c.034 0 .07-.009.105-.01l-.544 1.507c-7.353 2.443-12.662 9.365-12.662 17.539v122.156a8.886 8.886 0 0 0 8.887 8.887h44.727a8.887 8.887 0 0 0 8.887-8.887v-43.262h204.17v43.262a8.887 8.887 0 0 0 8.887 8.887h44.727a8.886 8.886 0 0 0 8.887-8.887V196.281c0-8.172-5.307-15.093-12.657-17.538l-.545-1.508c.033.001.068.009.101.009h36.061c2.776 0 6.101-2.124 7.039-4.855 3.651-10.633 3.649-16.72-.001-27.353zm-283.297-45.008h177.402l28.108 77.762H80.505l28.107-77.762zm4.948 132.543H76.142c-8.028 0-14.535-6.507-14.535-14.535 0-8.027 6.506-14.535 14.535-14.535h37.418c8.027 0 14.535 6.507 14.535 14.535.001 8.028-6.508 14.535-14.535 14.535zm204.945 0h-37.418c-8.027 0-14.535-6.507-14.535-14.535 0-8.027 6.508-14.535 14.535-14.535h37.418c8.028 0 14.535 6.507 14.535 14.535s-6.507 14.535-14.535 14.535z" style="stroke:#000000;stroke-width:0;stroke-linecap:round;stroke-linejoin:round;" fill="#ffffff" opacity="1" data-original="#000000"></path></g></svg>