<svg xmlns="http://www.w3.org/2000/svg" xmlns:xlink="http://www.w3.org/1999/xlink" width="508" zoomAndPan="magnify" viewBox="0 0 381 147.750002" height="197" preserveAspectRatio="xMidYMid meet" version="1.2"><defs/><g id="fa88c0bf0c"><g style="fill:#ffffff;fill-opacity:1;"><g transform="translate(1.235571, 102.209111)"><path style="stroke:none" d="M 10.28125 -86.75 L 30.359375 -86.75 L 30.359375 -16.359375 L 73.859375 -16.359375 L 73.859375 0 L 10.28125 0 Z M 10.28125 -86.75 "/></g></g><g style="fill:#ffffff;fill-opacity:1;"><g transform="translate(75.722689, 102.209111)"><path style="stroke:none" d="M 52.296875 1.484375 C 43.296875 1.484375 35.179688 -0.453125 27.953125 -4.328125 C 20.722656 -8.210938 15.0625 -13.5625 10.96875 -20.375 C 6.875 -27.195312 4.828125 -34.863281 4.828125 -43.375 C 4.828125 -51.882812 6.875 -59.546875 10.96875 -66.359375 C 15.0625 -73.179688 20.722656 -78.535156 27.953125 -82.421875 C 35.179688 -86.304688 43.296875 -88.25 52.296875 -88.25 C 61.304688 -88.25 69.40625 -86.304688 76.59375 -82.421875 C 83.78125 -78.535156 89.4375 -73.179688 93.5625 -66.359375 C 97.695312 -59.546875 99.765625 -51.882812 99.765625 -43.375 C 99.765625 -34.863281 97.695312 -27.195312 93.5625 -20.375 C 89.4375 -13.5625 83.78125 -8.210938 76.59375 -4.328125 C 69.40625 -0.453125 61.304688 1.484375 52.296875 1.484375 Z M 52.296875 -15.609375 C 57.421875 -15.609375 62.046875 -16.785156 66.171875 -19.140625 C 70.304688 -21.503906 73.550781 -24.789062 75.90625 -29 C 78.257812 -33.21875 79.4375 -38.007812 79.4375 -43.375 C 79.4375 -48.75 78.257812 -53.539062 75.90625 -57.75 C 73.550781 -61.96875 70.304688 -65.253906 66.171875 -67.609375 C 62.046875 -69.960938 57.421875 -71.140625 52.296875 -71.140625 C 47.179688 -71.140625 42.554688 -69.960938 38.421875 -67.609375 C 34.285156 -65.253906 31.039062 -61.96875 28.6875 -57.75 C 26.332031 -53.539062 25.15625 -48.75 25.15625 -43.375 C 25.15625 -38.007812 26.332031 -33.21875 28.6875 -29 C 31.039062 -24.789062 34.285156 -21.503906 38.421875 -19.140625 C 42.554688 -16.785156 47.179688 -15.609375 52.296875 -15.609375 Z M 52.296875 -15.609375 "/></g></g><g style="fill:#ffffff;fill-opacity:1;"><g transform="translate(179.955084, 102.209111)"><path style="stroke:none" d="M 68.90625 -44.734375 L 87.25 -44.734375 L 87.25 -9.546875 C 82.539062 -5.992188 77.085938 -3.265625 70.890625 -1.359375 C 64.691406 0.535156 58.453125 1.484375 52.171875 1.484375 C 43.171875 1.484375 35.078125 -0.429688 27.890625 -4.265625 C 20.703125 -8.109375 15.0625 -13.4375 10.96875 -20.25 C 6.875 -27.070312 4.828125 -34.78125 4.828125 -43.375 C 4.828125 -51.96875 6.875 -59.671875 10.96875 -66.484375 C 15.0625 -73.304688 20.742188 -78.640625 28.015625 -82.484375 C 35.285156 -86.328125 43.460938 -88.25 52.546875 -88.25 C 60.148438 -88.25 67.050781 -86.96875 73.25 -84.40625 C 79.445312 -81.84375 84.648438 -78.125 88.859375 -73.25 L 75.96875 -61.34375 C 69.769531 -67.875 62.296875 -71.140625 53.546875 -71.140625 C 48.003906 -71.140625 43.082031 -69.984375 38.78125 -67.671875 C 34.488281 -65.359375 31.144531 -62.09375 28.75 -57.875 C 26.351562 -53.664062 25.15625 -48.832031 25.15625 -43.375 C 25.15625 -38.007812 26.351562 -33.21875 28.75 -29 C 31.144531 -24.789062 34.46875 -21.503906 38.71875 -19.140625 C 42.976562 -16.785156 47.835938 -15.609375 53.296875 -15.609375 C 59.078125 -15.609375 64.28125 -16.847656 68.90625 -19.328125 Z M 68.90625 -44.734375 "/></g></g><g style="fill:#ffffff;fill-opacity:1;"><g transform="translate(275.139948, 102.209111)"><path style="stroke:none" d="M 52.296875 1.484375 C 43.296875 1.484375 35.179688 -0.453125 27.953125 -4.328125 C 20.722656 -8.210938 15.0625 -13.5625 10.96875 -20.375 C 6.875 -27.195312 4.828125 -34.863281 4.828125 -43.375 C 4.828125 -51.882812 6.875 -59.546875 10.96875 -66.359375 C 15.0625 -73.179688 20.722656 -78.535156 27.953125 -82.421875 C 35.179688 -86.304688 43.296875 -88.25 52.296875 -88.25 C 61.304688 -88.25 69.40625 -86.304688 76.59375 -82.421875 C 83.78125 -78.535156 89.4375 -73.179688 93.5625 -66.359375 C 97.695312 -59.546875 99.765625 -51.882812 99.765625 -43.375 C 99.765625 -34.863281 97.695312 -27.195312 93.5625 -20.375 C 89.4375 -13.5625 83.78125 -8.210938 76.59375 -4.328125 C 69.40625 -0.453125 61.304688 1.484375 52.296875 1.484375 Z M 52.296875 -15.609375 C 57.421875 -15.609375 62.046875 -16.785156 66.171875 -19.140625 C 70.304688 -21.503906 73.550781 -24.789062 75.90625 -29 C 78.257812 -33.21875 79.4375 -38.007812 79.4375 -43.375 C 79.4375 -48.75 78.257812 -53.539062 75.90625 -57.75 C 73.550781 -61.96875 70.304688 -65.253906 66.171875 -67.609375 C 62.046875 -69.960938 57.421875 -71.140625 52.296875 -71.140625 C 47.179688 -71.140625 42.554688 -69.960938 38.421875 -67.609375 C 34.285156 -65.253906 31.039062 -61.96875 28.6875 -57.75 C 26.332031 -53.539062 25.15625 -48.75 25.15625 -43.375 C 25.15625 -38.007812 26.332031 -33.21875 28.6875 -29 C 31.039062 -24.789062 34.285156 -21.503906 38.421875 -19.140625 C 42.554688 -16.785156 47.179688 -15.609375 52.296875 -15.609375 Z M 52.296875 -15.609375 "/></g></g><g style="fill:#d00007;fill-opacity:1;"><g transform="translate(6.688983, 128.528244)"><path style="stroke:none" d="M 5.328125 0.203125 C 4.378906 0.203125 3.46875 0.078125 2.59375 -0.171875 C 1.71875 -0.429688 1.007812 -0.765625 0.46875 -1.171875 L 1.40625 -3.25 C 1.914062 -2.875 2.519531 -2.570312 3.21875 -2.34375 C 3.925781 -2.125 4.632812 -2.015625 5.34375 -2.015625 C 6.125 -2.015625 6.703125 -2.128906 7.078125 -2.359375 C 7.453125 -2.585938 7.640625 -2.894531 7.640625 -3.28125 C 7.640625 -3.5625 7.523438 -3.796875 7.296875 -3.984375 C 7.078125 -4.171875 6.796875 -4.320312 6.453125 -4.4375 C 6.109375 -4.550781 5.640625 -4.675781 5.046875 -4.8125 C 4.140625 -5.03125 3.394531 -5.242188 2.8125 -5.453125 C 2.238281 -5.671875 1.742188 -6.019531 1.328125 -6.5 C 0.921875 -6.976562 0.71875 -7.613281 0.71875 -8.40625 C 0.71875 -9.09375 0.90625 -9.71875 1.28125 -10.28125 C 1.65625 -10.84375 2.21875 -11.285156 2.96875 -11.609375 C 3.71875 -11.941406 4.640625 -12.109375 5.734375 -12.109375 C 6.492188 -12.109375 7.234375 -12.019531 7.953125 -11.84375 C 8.679688 -11.664062 9.320312 -11.40625 9.875 -11.0625 L 9.015625 -8.96875 C 7.921875 -9.59375 6.820312 -9.90625 5.71875 -9.90625 C 4.945312 -9.90625 4.375 -9.78125 4 -9.53125 C 3.632812 -9.28125 3.453125 -8.953125 3.453125 -8.546875 C 3.453125 -8.128906 3.664062 -7.820312 4.09375 -7.625 C 4.519531 -7.425781 5.171875 -7.234375 6.046875 -7.046875 C 6.953125 -6.828125 7.691406 -6.609375 8.265625 -6.390625 C 8.847656 -6.179688 9.34375 -5.84375 9.75 -5.375 C 10.164062 -4.90625 10.375 -4.273438 10.375 -3.484375 C 10.375 -2.804688 10.179688 -2.1875 9.796875 -1.625 C 9.421875 -1.0625 8.851562 -0.613281 8.09375 -0.28125 C 7.332031 0.0390625 6.410156 0.203125 5.328125 0.203125 Z M 5.328125 0.203125 "/></g></g><g style="fill:#d00007;fill-opacity:1;"><g transform="translate(28.263256, 128.528244)"><path style="stroke:none" d="M 3.875 -9.671875 L 0.0625 -9.671875 L 0.0625 -11.90625 L 10.453125 -11.90625 L 10.453125 -9.671875 L 6.640625 -9.671875 L 6.640625 0 L 3.875 0 Z M 3.875 -9.671875 "/></g></g><g style="fill:#d00007;fill-opacity:1;"><g transform="translate(49.497362, 128.528244)"><path style="stroke:none" d="M 9.25 -2.546875 L 3.71875 -2.546875 L 2.671875 0 L -0.15625 0 L 5.15625 -11.90625 L 7.875 -11.90625 L 13.203125 0 L 10.3125 0 Z M 8.390625 -4.640625 L 6.5 -9.203125 L 4.609375 -4.640625 Z M 8.390625 -4.640625 "/></g></g><g style="fill:#d00007;fill-opacity:1;"><g transform="translate(73.248759, 128.528244)"><path style="stroke:none" d="M 3.875 -9.671875 L 0.0625 -9.671875 L 0.0625 -11.90625 L 10.453125 -11.90625 L 10.453125 -9.671875 L 6.640625 -9.671875 L 6.640625 0 L 3.875 0 Z M 3.875 -9.671875 "/></g></g><g style="fill:#d00007;fill-opacity:1;"><g transform="translate(94.482864, 128.528244)"><path style="stroke:none" d="M 1.40625 -11.90625 L 4.171875 -11.90625 L 4.171875 0 L 1.40625 0 Z M 1.40625 -11.90625 "/></g></g><g style="fill:#d00007;fill-opacity:1;"><g transform="translate(110.78442, 128.528244)"><path style="stroke:none" d="M 10.640625 -2.21875 L 10.640625 0 L 1.40625 0 L 1.40625 -11.90625 L 10.40625 -11.90625 L 10.40625 -9.703125 L 4.15625 -9.703125 L 4.15625 -7.109375 L 9.6875 -7.109375 L 9.6875 -4.96875 L 4.15625 -4.96875 L 4.15625 -2.21875 Z M 10.640625 -2.21875 "/></g></g><g style="fill:#d00007;fill-opacity:1;"><g transform="translate(132.919991, 128.528244)"><path style="stroke:none" d=""/></g></g><g style="fill:#d00007;fill-opacity:1;"><g transform="translate(148.456159, 128.528244)"><path style="stroke:none" d="M 1.40625 -11.90625 L 4.171875 -11.90625 L 4.171875 0 L 1.40625 0 Z M 1.40625 -11.90625 "/></g></g><g style="fill:#d00007;fill-opacity:1;"><g transform="translate(164.757714, 128.528244)"><path style="stroke:none" d="M 3.875 -9.671875 L 0.0625 -9.671875 L 0.0625 -11.90625 L 10.453125 -11.90625 L 10.453125 -9.671875 L 6.640625 -9.671875 L 6.640625 0 L 3.875 0 Z M 3.875 -9.671875 "/></g></g><g style="fill:#d00007;fill-opacity:1;"><g transform="translate(185.99182, 128.528244)"><path style="stroke:none" d="M 6.5625 -11.90625 C 7.625 -11.90625 8.539062 -11.726562 9.3125 -11.375 C 10.09375 -11.03125 10.691406 -10.535156 11.109375 -9.890625 C 11.523438 -9.242188 11.734375 -8.476562 11.734375 -7.59375 C 11.734375 -6.71875 11.523438 -5.953125 11.109375 -5.296875 C 10.691406 -4.648438 10.09375 -4.148438 9.3125 -3.796875 C 8.539062 -3.453125 7.625 -3.28125 6.5625 -3.28125 L 4.171875 -3.28125 L 4.171875 0 L 1.40625 0 L 1.40625 -11.90625 Z M 6.421875 -5.53125 C 7.242188 -5.53125 7.867188 -5.707031 8.296875 -6.0625 C 8.734375 -6.425781 8.953125 -6.9375 8.953125 -7.59375 C 8.953125 -8.257812 8.734375 -8.769531 8.296875 -9.125 C 7.867188 -9.488281 7.242188 -9.671875 6.421875 -9.671875 L 4.171875 -9.671875 L 4.171875 -5.53125 Z M 6.421875 -5.53125 "/></g></g><g style="fill:#d00007;fill-opacity:1;"><g transform="translate(209.164936, 128.528244)"><path style="stroke:none" d=""/></g></g><g style="fill:#d00007;fill-opacity:1;"><g transform="translate(224.701093, 128.528244)"><path style="stroke:none" d="M 10.15625 -6.1875 C 10.832031 -5.976562 11.363281 -5.617188 11.75 -5.109375 C 12.144531 -4.609375 12.34375 -3.988281 12.34375 -3.25 C 12.34375 -2.207031 11.9375 -1.40625 11.125 -0.84375 C 10.3125 -0.28125 9.128906 0 7.578125 0 L 1.40625 0 L 1.40625 -11.90625 L 7.234375 -11.90625 C 8.679688 -11.90625 9.789062 -11.628906 10.5625 -11.078125 C 11.34375 -10.523438 11.734375 -9.769531 11.734375 -8.8125 C 11.734375 -8.238281 11.59375 -7.722656 11.3125 -7.265625 C 11.039062 -6.804688 10.65625 -6.445312 10.15625 -6.1875 Z M 4.15625 -9.828125 L 4.15625 -7.03125 L 6.890625 -7.03125 C 7.566406 -7.03125 8.082031 -7.144531 8.4375 -7.375 C 8.789062 -7.613281 8.96875 -7.96875 8.96875 -8.4375 C 8.96875 -8.90625 8.789062 -9.253906 8.4375 -9.484375 C 8.082031 -9.710938 7.566406 -9.828125 6.890625 -9.828125 Z M 7.375 -2.078125 C 8.09375 -2.078125 8.632812 -2.195312 9 -2.4375 C 9.375 -2.675781 9.5625 -3.046875 9.5625 -3.546875 C 9.5625 -4.523438 8.832031 -5.015625 7.375 -5.015625 L 4.15625 -5.015625 L 4.15625 -2.078125 Z M 7.375 -2.078125 "/></g></g><g style="fill:#d00007;fill-opacity:1;"><g transform="translate(248.435484, 128.528244)"><path style="stroke:none" d="M 9 0 L 6.703125 -3.3125 L 4.171875 -3.3125 L 4.171875 0 L 1.40625 0 L 1.40625 -11.90625 L 6.5625 -11.90625 C 7.625 -11.90625 8.539062 -11.726562 9.3125 -11.375 C 10.09375 -11.03125 10.691406 -10.535156 11.109375 -9.890625 C 11.523438 -9.242188 11.734375 -8.476562 11.734375 -7.59375 C 11.734375 -6.707031 11.519531 -5.941406 11.09375 -5.296875 C 10.675781 -4.660156 10.078125 -4.171875 9.296875 -3.828125 L 11.96875 0 Z M 8.953125 -7.59375 C 8.953125 -8.257812 8.734375 -8.769531 8.296875 -9.125 C 7.867188 -9.488281 7.242188 -9.671875 6.421875 -9.671875 L 4.171875 -9.671875 L 4.171875 -5.515625 L 6.421875 -5.515625 C 7.242188 -5.515625 7.867188 -5.695312 8.296875 -6.0625 C 8.734375 -6.425781 8.953125 -6.9375 8.953125 -7.59375 Z M 8.953125 -7.59375 "/></g></g><g style="fill:#d00007;fill-opacity:1;"><g transform="translate(271.659617, 128.528244)"><path style="stroke:none" d="M 9.25 -2.546875 L 3.71875 -2.546875 L 2.671875 0 L -0.15625 0 L 5.15625 -11.90625 L 7.875 -11.90625 L 13.203125 0 L 10.3125 0 Z M 8.390625 -4.640625 L 6.5 -9.203125 L 4.609375 -4.640625 Z M 8.390625 -4.640625 "/></g></g><g style="fill:#d00007;fill-opacity:1;"><g transform="translate(295.411003, 128.528244)"><path style="stroke:none" d="M 5.328125 0.203125 C 4.378906 0.203125 3.46875 0.078125 2.59375 -0.171875 C 1.71875 -0.429688 1.007812 -0.765625 0.46875 -1.171875 L 1.40625 -3.25 C 1.914062 -2.875 2.519531 -2.570312 3.21875 -2.34375 C 3.925781 -2.125 4.632812 -2.015625 5.34375 -2.015625 C 6.125 -2.015625 6.703125 -2.128906 7.078125 -2.359375 C 7.453125 -2.585938 7.640625 -2.894531 7.640625 -3.28125 C 7.640625 -3.5625 7.523438 -3.796875 7.296875 -3.984375 C 7.078125 -4.171875 6.796875 -4.320312 6.453125 -4.4375 C 6.109375 -4.550781 5.640625 -4.675781 5.046875 -4.8125 C 4.140625 -5.03125 3.394531 -5.242188 2.8125 -5.453125 C 2.238281 -5.671875 1.742188 -6.019531 1.328125 -6.5 C 0.921875 -6.976562 0.71875 -7.613281 0.71875 -8.40625 C 0.71875 -9.09375 0.90625 -9.71875 1.28125 -10.28125 C 1.65625 -10.84375 2.21875 -11.285156 2.96875 -11.609375 C 3.71875 -11.941406 4.640625 -12.109375 5.734375 -12.109375 C 6.492188 -12.109375 7.234375 -12.019531 7.953125 -11.84375 C 8.679688 -11.664062 9.320312 -11.40625 9.875 -11.0625 L 9.015625 -8.96875 C 7.921875 -9.59375 6.820312 -9.90625 5.71875 -9.90625 C 4.945312 -9.90625 4.375 -9.78125 4 -9.53125 C 3.632812 -9.28125 3.453125 -8.953125 3.453125 -8.546875 C 3.453125 -8.128906 3.664062 -7.820312 4.09375 -7.625 C 4.519531 -7.425781 5.171875 -7.234375 6.046875 -7.046875 C 6.953125 -6.828125 7.691406 -6.609375 8.265625 -6.390625 C 8.847656 -6.179688 9.34375 -5.84375 9.75 -5.375 C 10.164062 -4.90625 10.375 -4.273438 10.375 -3.484375 C 10.375 -2.804688 10.179688 -2.1875 9.796875 -1.625 C 9.421875 -1.0625 8.851562 -0.613281 8.09375 -0.28125 C 7.332031 0.0390625 6.410156 0.203125 5.328125 0.203125 Z M 5.328125 0.203125 "/></g></g><g style="fill:#d00007;fill-opacity:1;"><g transform="translate(316.985288, 128.528244)"><path style="stroke:none" d="M 7.1875 0.203125 C 5.945312 0.203125 4.828125 -0.0625 3.828125 -0.59375 C 2.835938 -1.125 2.0625 -1.859375 1.5 -2.796875 C 0.9375 -3.734375 0.65625 -4.785156 0.65625 -5.953125 C 0.65625 -7.117188 0.9375 -8.171875 1.5 -9.109375 C 2.0625 -10.046875 2.835938 -10.78125 3.828125 -11.3125 C 4.828125 -11.84375 5.945312 -12.109375 7.1875 -12.109375 C 8.414062 -12.109375 9.523438 -11.84375 10.515625 -11.3125 C 11.503906 -10.78125 12.28125 -10.046875 12.84375 -9.109375 C 13.414062 -8.171875 13.703125 -7.117188 13.703125 -5.953125 C 13.703125 -4.785156 13.414062 -3.734375 12.84375 -2.796875 C 12.28125 -1.859375 11.503906 -1.125 10.515625 -0.59375 C 9.523438 -0.0625 8.414062 0.203125 7.1875 0.203125 Z M 7.1875 -2.140625 C 7.882812 -2.140625 8.515625 -2.300781 9.078125 -2.625 C 9.648438 -2.945312 10.097656 -3.394531 10.421875 -3.96875 C 10.742188 -4.550781 10.90625 -5.210938 10.90625 -5.953125 C 10.90625 -6.691406 10.742188 -7.347656 10.421875 -7.921875 C 10.097656 -8.503906 9.648438 -8.957031 9.078125 -9.28125 C 8.515625 -9.601562 7.882812 -9.765625 7.1875 -9.765625 C 6.476562 -9.765625 5.835938 -9.601562 5.265625 -9.28125 C 4.703125 -8.957031 4.257812 -8.503906 3.9375 -7.921875 C 3.613281 -7.347656 3.453125 -6.691406 3.453125 -5.953125 C 3.453125 -5.210938 3.613281 -4.550781 3.9375 -3.96875 C 4.257812 -3.394531 4.703125 -2.945312 5.265625 -2.625 C 5.835938 -2.300781 6.476562 -2.140625 7.1875 -2.140625 Z M 7.1875 -2.140625 "/></g></g><g style="fill:#d00007;fill-opacity:1;"><g transform="translate(342.063382, 128.528244)"><path style="stroke:none" d="M 12.859375 -11.90625 L 7.703125 0 L 4.984375 0 L -0.15625 -11.90625 L 2.828125 -11.90625 L 6.453125 -3.40625 L 10.125 -11.90625 Z M 12.859375 -11.90625 "/></g></g></g></svg>