<svg xmlns="http://www.w3.org/2000/svg" version="1.1" xmlns:xlink="http://www.w3.org/1999/xlink" width="512" height="512" x="0" y="0" viewBox="0 0 512 512" style="enable-background:new 0 0 512 512" xml:space="preserve" class=""><circle r="256" cx="256" cy="256" fill="#d00007" shape="circle"></circle><g transform="matrix(0.7,0,0,0.7,76.80003662109377,76.79993217587472)"><path d="M511.904 249.131C496.166 113.027 404.283 20.808 263.948.372c-8.983-1.307-16.913 5.962-16.913 15.04v101.041c38.35 3.442 73.789 20.083 101.416 47.71 27.627 27.627 44.268 63.267 47.71 101.616h100.64c8.895 0 16.124-7.811 15.103-16.648zM297.567 268.115c-6.366-26.206-27.861-47.7-54.067-54.067-55.724-13.537-104.936 35.673-91.399 91.399 6.367 26.206 27.861 47.701 54.067 54.067 55.725 13.536 104.936-35.675 91.399-91.399zm-72.732 63.665c-24.814 0-45-20.186-45-45s20.186-45 45-45 45 20.186 45 45-20.186 45-45 45z" fill="#ffffff" opacity="1" data-original="#000000" class=""></path><path d="M224.835 271.78c-8.276 0-15 6.724-15 15s6.724 15 15 15 15-6.724 15-15-6.724-15-15-15z" fill="#ffffff" opacity="1" data-original="#000000" class=""></path><path d="M374.674 301.781c-8.418-.001-14.647-7.047-14.677-15.464-.119-35.819-14.171-69.52-39.593-94.942s-59.123-39.474-94.942-39.595c-8.417-.027-15.463-6.257-15.463-14.674V62.54C90.415 70.481-3.978 171.995.129 294.471c3.895 116.16 101.019 213.285 217.18 217.18 122.476 4.107 223.989-90.286 231.931-209.87h-74.566zM108.326 170.107c5.858-5.858 15.355-5.858 21.213 0 5.859 5.858 5.859 15.355 0 21.213-5.858 5.858-15.355 5.858-21.213 0-5.858-5.858-5.857-15.355 0-21.213zM74.999 301.78c-8.284 0-15-6.716-15-15 0-8.286 6.716-15 15-15s15 6.714 15 15c0 8.284-6.716 15-15 15zm54.54 101.673c-5.858 5.858-15.355 5.858-21.213 0-5.858-5.859-5.858-15.357 0-21.215 5.858-5.858 15.355-5.858 21.213 0 5.859 5.858 5.859 15.356 0 21.215zm95.46 48.327c-8.284 0-15-6.716-15-15 0-8.286 6.716-15 15-15s15 6.714 15 15c0 8.284-6.716 15-15 15zm20.577-61.97c-73.841 14.112-137.719-49.766-123.609-123.607 7.842-41.039 41.417-74.612 82.454-82.454 73.841-14.11 137.719 49.768 123.609 123.607-7.842 41.039-41.416 74.611-82.454 82.454zm96.096 13.643c-5.858 5.858-15.355 5.858-21.213 0-5.859-5.859-5.859-15.357 0-21.215 5.858-5.858 15.355-5.858 21.213 0 5.858 5.858 5.858 15.356 0 21.215z" fill="#ffffff" opacity="1" data-original="#000000" class=""></path></g></svg>