<svg xmlns="http://www.w3.org/2000/svg" version="1.1" xmlns:xlink="http://www.w3.org/1999/xlink" width="512" height="512" x="0" y="0" viewBox="0 0 32 32" style="enable-background:new 0 0 512 512" xml:space="preserve" class=""><circle r="16" cx="16" cy="16" fill="#d00007" shape="circle"></circle><g transform="matrix(0.7,0,0,0.7,4.800000000000001,4.6499997138977065)"><path d="M27 10h-1a1 1 0 0 0-1 1v3h-3v-2a2 2 0 0 0-2-2h-4V8h4a1 1 0 0 0 1-1V6a1 1 0 0 0-1-1H9a1 1 0 0 0-1 1v1a1 1 0 0 0 1 1h4v2H9a2 2 0 0 0-2 2v4H5v-3a1 1 0 0 0-1-1H3a1 1 0 0 0-1 1v9a1 1 0 0 0 1 1h1a1 1 0 0 0 1-1v-3h2v2.592a2 2 0 0 0 .683 1.505l2.752 2.408c.364.319.832.495 1.316.495H20a2 2 0 0 0 2-2v-3h3v3a1 1 0 0 0 1 1h1a3 3 0 0 0 3-3v-9a3 3 0 0 0-3-3zm-9.168 8.555-2 3C15.525 22.015 15 22 15 22v-3h-2a1 1 0 0 1-.832-1.554l2-3C14.474 13.985 15 14 15 14v3h2a1 1 0 0 1 .832 1.555z" fill="#ffffff" opacity="1" data-original="#000000"></path></g></svg>