<svg xmlns="http://www.w3.org/2000/svg" version="1.1" xmlns:xlink="http://www.w3.org/1999/xlink" width="512" height="512" x="0" y="0" viewBox="0 0 512 512" style="enable-background:new 0 0 512 512" xml:space="preserve" class=""><circle r="256" cx="256" cy="256" fill="#d00007" shape="circle"></circle><g transform="matrix(0.7,0,0,0.7,76.80000000000001,76.80000000000001)"><path d="M448 159.04h-.08c-2.31 0-4.55-.79-6.34-2.26l-108.78-89-38.53.54.26 44.25a10.005 10.005 0 0 1-10 10.06H106.06c-3.63 0-6.97-1.96-8.74-5.13L43.04 20H20v422.18h50.85v-26.95c0-4.54 3.05-8.5 7.43-9.67l63.86-16.98c.84-.22 1.71-.33 2.57-.33h63.87c5.52 0 10 4.48 10 10v35.99l18.66.09v-36.08c0-2.66 1.06-5.21 2.94-7.09 1.89-1.88 4.48-2.92 7.1-2.91l38.66.19c5.5.03 9.95 4.49 9.95 10v29.89l17.87.25c5.47.07 9.86 4.53 9.86 10V492h40.99l27.28-40.42a9.985 9.985 0 0 1 8.29-4.41h42.8L492 396.22V158.67zm30.08 94.87c0 5.52-4.47 10-10 10H444.8v7.76c0 5.52-4.48 10-10 10h-54.62c-5.53 0-10-4.48-10-10v-7.76h-15.07v96.57c0 5.52-4.48 10-10 10h-47.9c-5.52 0-10-4.48-10-10v-96.57h-33.22v38.33c0 5.53-4.48 10-10 10h-59.66c-5.52 0-10-4.47-10-10v-28.57h-25.07v41.35c0 4.41-2.89 8.29-7.11 9.57l-66.22 20c-.95.29-1.92.43-2.89.43-2.12 0-4.21-.68-5.96-1.98a9.984 9.984 0 0 1-4.04-8.02v-35.11H39.8c-5.52 0-10-4.48-10-10v-30.46c0-5.52 4.48-10 10-10h23.24V205.6c0-3.16 1.5-6.14 4.04-8.02a10 10 0 0 1 8.85-1.55l66.22 20c4.22 1.28 7.11 5.17 7.11 9.57v28.07h25.07v-70.75c0-5.53 4.48-10 10-10h59.66c5.52 0 10 4.47 10 10v34.53h33.22v-62.77c0-5.52 4.48-10 10-10h47.9c5.52 0 10 4.48 10 10v62.77h15.07v-9.64c0-5.53 4.47-10 10-10h54.62c5.52 0 10 4.47 10 10v5.64h23.28c5.53 0 10 4.48 10 10z" fill="#ffffff" opacity="1" data-original="#000000" class=""></path><path d="M441.8 230.45h19.28v16.46H441.8zM390.18 217.81h34.62v43.86h-34.62zM352.8 234.45h19.28v12.46H352.8zM307.21 326.28h27.9v24.2h-27.9zM307.21 286.28h27.9v20h-27.9zM307.21 246.28h27.9v20h-27.9zM307.21 206.28h27.9v20h-27.9zM307.21 164.68h27.9v21.6h-27.9zM251.8 234.45h38.28v12.46H251.8zM194.33 192.92h39.66v99.32h-39.66zM46.8 266.45h19.24v16.46H46.8zM129.26 233.03v74.56l-46.22 13.96V219.07z" fill="#ffffff" opacity="1" data-original="#000000" class=""></path></g></svg>