<svg xmlns="http://www.w3.org/2000/svg" xmlns:xlink="http://www.w3.org/1999/xlink" width="500" zoomAndPan="magnify" viewBox="0 0 375 116.249996" height="155" preserveAspectRatio="xMidYMid meet" version="1.2"><defs><clipPath id="66d2934d3f"><path d="M 1.203125 42 L 75 42 L 75 115.503906 L 1.203125 115.503906 Z M 1.203125 42 "/></clipPath><clipPath id="e1293113a1"><path d="M 20.507812 30.058594 L 94.304688 30.058594 L 94.304688 88.925781 L 20.507812 88.925781 Z M 20.507812 30.058594 "/></clipPath></defs><g id="d1c0e8b0f1"><g clip-rule="nonzero" clip-path="url(#66d2934d3f)"><path style=" stroke:none;fill-rule:nonzero;fill:#ffffff;fill-opacity:1;" d="M 62.722656 63.84375 L 66.78125 56.0625 L 60.539062 49.816406 L 52.734375 53.890625 C 50.308594 52.433594 47.652344 51.324219 44.832031 50.621094 L 42.191406 42.21875 L 33.363281 42.21875 L 30.722656 50.621094 C 27.902344 51.324219 25.246094 52.4375 22.820312 53.890625 L 15.011719 49.816406 L 8.769531 56.0625 L 12.832031 63.84375 C 11.359375 66.28125 10.234375 68.949219 9.527344 71.785156 L 1.171875 74.40625 L 1.171875 83.238281 L 9.492188 85.851562 C 10.195312 88.714844 11.320312 91.410156 12.796875 93.867188 L 8.769531 101.585938 L 15.011719 107.828125 L 22.707031 103.8125 C 25.175781 105.308594 27.882812 106.445312 30.761719 107.15625 L 33.359375 115.429688 L 42.1875 115.429688 L 44.789062 107.15625 C 47.664062 106.445312 50.371094 105.308594 52.839844 103.8125 L 60.535156 107.828125 L 66.78125 101.585938 L 62.753906 93.867188 C 64.230469 91.410156 65.355469 88.714844 66.058594 85.851562 L 74.378906 83.238281 L 74.378906 74.40625 L 66.023438 71.785156 C 65.320312 68.949219 64.195312 66.28125 62.722656 63.84375 Z M 37.777344 98.199219 C 27.109375 98.199219 18.464844 89.550781 18.464844 78.886719 C 18.464844 68.21875 27.109375 59.570312 37.777344 59.570312 C 48.445312 59.570312 57.089844 68.21875 57.089844 78.886719 C 57.089844 89.550781 48.445312 98.199219 37.777344 98.199219 Z M 37.777344 98.199219 "/></g><path style=" stroke:none;fill-rule:nonzero;fill:#ffffff;fill-opacity:1;" d="M 36.316406 29.769531 L 32.550781 34.058594 L 35.554688 39.003906 L 41.082031 37.644531 C 42.417969 38.980469 43.96875 40.125 45.6875 41.027344 L 46.058594 46.699219 L 51.679688 48.074219 L 54.625 43.210938 C 56.566406 43.203125 58.46875 42.902344 60.273438 42.332031 L 64.546875 46.089844 L 69.496094 43.082031 L 68.132812 37.542969 C 69.457031 36.207031 70.589844 34.664062 71.484375 32.953125 L 77.191406 32.582031 L 78.566406 26.960938 L 73.652344 23.988281 C 73.640625 22.070312 73.34375 20.195312 72.78125 18.417969 L 76.578125 14.089844 L 73.574219 9.144531 L 67.96875 10.523438 C 66.652344 9.21875 65.132812 8.097656 63.445312 7.210938 L 63.074219 1.449219 L 57.449219 0.0742188 L 54.460938 5.015625 C 52.554688 5.023438 50.691406 5.316406 48.917969 5.867188 L 44.582031 2.058594 L 39.632812 5.0625 L 41.011719 10.652344 C 39.691406 11.972656 38.5625 13.5 37.667969 15.195312 L 31.941406 15.566406 L 30.566406 21.191406 L 35.460938 24.148438 C 35.460938 26.082031 35.757812 27.972656 36.316406 29.769531 Z M 42.253906 21.109375 C 43.914062 14.316406 50.765625 10.15625 57.558594 11.8125 C 64.351562 13.472656 68.515625 20.328125 66.855469 27.121094 C 65.195312 33.914062 58.34375 38.074219 51.550781 36.414062 C 44.757812 34.753906 40.59375 27.902344 42.253906 21.109375 Z M 42.253906 21.109375 "/><path style=" stroke:none;fill-rule:nonzero;fill:#ffffff;fill-opacity:1;" d="M 99.484375 50.425781 C 99.328125 48.957031 98.960938 47.5 98.367188 46.105469 L 101.039062 42.367188 L 98.269531 38.691406 L 93.9375 40.226562 C 92.761719 39.269531 91.464844 38.515625 90.097656 37.960938 L 89.34375 33.429688 L 84.785156 32.789062 L 82.816406 36.921875 C 81.339844 37.074219 79.875 37.441406 78.472656 38.035156 L 74.753906 35.378906 L 71.074219 38.148438 L 72.597656 42.4375 C 71.625 43.628906 70.855469 44.941406 70.292969 46.328125 L 65.816406 47.074219 L 65.171875 51.636719 L 69.261719 53.582031 C 69.414062 55.078125 69.789062 56.5625 70.394531 57.984375 L 67.765625 61.664062 L 70.535156 65.34375 L 74.796875 63.832031 C 75.996094 64.804688 77.320312 65.578125 78.71875 66.136719 L 79.460938 70.605469 L 84.019531 71.246094 L 85.972656 67.148438 C 87.460938 66.992188 88.9375 66.613281 90.347656 66.007812 L 94.050781 68.65625 L 97.730469 65.882812 L 96.199219 61.582031 C 97.160156 60.394531 97.917969 59.089844 98.472656 57.710938 L 102.988281 56.960938 L 103.628906 52.398438 Z M 90.4375 60.082031 C 85.992188 63.429688 79.679688 62.542969 76.328125 58.097656 C 72.980469 53.652344 73.871094 47.335938 78.316406 43.988281 C 82.761719 40.640625 89.078125 41.527344 92.425781 45.976562 C 95.773438 50.417969 94.882812 56.734375 90.4375 60.082031 Z M 90.4375 60.082031 "/><g clip-rule="nonzero" clip-path="url(#e1293113a1)"><path style=" stroke:none;fill-rule:nonzero;fill:#d00007;fill-opacity:1;" d="M 94.304688 30.0625 C 72.96875 36.699219 55.074219 51.429688 44.460938 71.089844 L 27.847656 58.417969 L 20.507812 64.820312 L 45.15625 88.976562 C 56.367188 65.546875 73.261719 45.289062 94.304688 30.0625 "/></g><g style="fill:#ffffff;fill-opacity:1;"><g transform="translate(86.017312, 108.1268)"><path style="stroke:none" d="M 2.453125 -20.65625 L 7.234375 -20.65625 L 7.234375 0 L 2.453125 0 Z M 2.453125 -20.65625 "/></g></g><g style="fill:#ffffff;fill-opacity:1;"><g transform="translate(95.694668, 108.1268)"><path style="stroke:none" d="M 6.71875 -16.75 L 0.125 -16.75 L 0.125 -20.65625 L 18.109375 -20.65625 L 18.109375 -16.75 L 11.5 -16.75 L 11.5 0 L 6.71875 0 Z M 6.71875 -16.75 "/></g></g><g style="fill:#ffffff;fill-opacity:1;"><g transform="translate(113.928227, 108.1268)"><path style="stroke:none" d="M 11.390625 -20.65625 C 13.210938 -20.65625 14.796875 -20.347656 16.140625 -19.734375 C 17.492188 -19.128906 18.535156 -18.265625 19.265625 -17.140625 C 19.992188 -16.015625 20.359375 -14.6875 20.359375 -13.15625 C 20.359375 -11.644531 19.992188 -10.320312 19.265625 -9.1875 C 18.535156 -8.0625 17.492188 -7.195312 16.140625 -6.59375 C 14.796875 -5.988281 13.210938 -5.6875 11.390625 -5.6875 L 7.234375 -5.6875 L 7.234375 0 L 2.453125 0 L 2.453125 -20.65625 Z M 11.125 -9.59375 C 12.5625 -9.59375 13.648438 -9.898438 14.390625 -10.515625 C 15.140625 -11.140625 15.515625 -12.019531 15.515625 -13.15625 C 15.515625 -14.3125 15.140625 -15.195312 14.390625 -15.8125 C 13.648438 -16.4375 12.5625 -16.75 11.125 -16.75 L 7.234375 -16.75 L 7.234375 -9.59375 Z M 11.125 -9.59375 "/></g></g><g style="fill:#ffffff;fill-opacity:1;"><g transform="translate(135.525257, 108.1268)"><path style="stroke:none" d=""/></g></g><g style="fill:#ffffff;fill-opacity:1;"><g transform="translate(143.874929, 108.1268)"><path style="stroke:none" d="M 11.390625 -20.65625 C 13.210938 -20.65625 14.796875 -20.347656 16.140625 -19.734375 C 17.492188 -19.128906 18.535156 -18.265625 19.265625 -17.140625 C 19.992188 -16.015625 20.359375 -14.6875 20.359375 -13.15625 C 20.359375 -11.644531 19.992188 -10.320312 19.265625 -9.1875 C 18.535156 -8.0625 17.492188 -7.195312 16.140625 -6.59375 C 14.796875 -5.988281 13.210938 -5.6875 11.390625 -5.6875 L 7.234375 -5.6875 L 7.234375 0 L 2.453125 0 L 2.453125 -20.65625 Z M 11.125 -9.59375 C 12.5625 -9.59375 13.648438 -9.898438 14.390625 -10.515625 C 15.140625 -11.140625 15.515625 -12.019531 15.515625 -13.15625 C 15.515625 -14.3125 15.140625 -15.195312 14.390625 -15.8125 C 13.648438 -16.4375 12.5625 -16.75 11.125 -16.75 L 7.234375 -16.75 L 7.234375 -9.59375 Z M 11.125 -9.59375 "/></g></g><g style="fill:#ffffff;fill-opacity:1;"><g transform="translate(165.176891, 108.1268)"><path style="stroke:none" d="M 15.609375 0 L 11.625 -5.75 L 7.234375 -5.75 L 7.234375 0 L 2.453125 0 L 2.453125 -20.65625 L 11.390625 -20.65625 C 13.210938 -20.65625 14.796875 -20.347656 16.140625 -19.734375 C 17.492188 -19.128906 18.535156 -18.265625 19.265625 -17.140625 C 19.992188 -16.015625 20.359375 -14.6875 20.359375 -13.15625 C 20.359375 -11.625 19.988281 -10.300781 19.25 -9.1875 C 18.507812 -8.070312 17.460938 -7.222656 16.109375 -6.640625 L 20.734375 0 Z M 15.515625 -13.15625 C 15.515625 -14.3125 15.140625 -15.195312 14.390625 -15.8125 C 13.648438 -16.4375 12.5625 -16.75 11.125 -16.75 L 7.234375 -16.75 L 7.234375 -9.5625 L 11.125 -9.5625 C 12.5625 -9.5625 13.648438 -9.875 14.390625 -10.5 C 15.140625 -11.132812 15.515625 -12.019531 15.515625 -13.15625 Z M 15.515625 -13.15625 "/></g></g><g style="fill:#ffffff;fill-opacity:1;"><g transform="translate(186.862431, 108.1268)"><path style="stroke:none" d="M 12.453125 0.359375 C 10.304688 0.359375 8.375 -0.101562 6.65625 -1.03125 C 4.9375 -1.957031 3.585938 -3.226562 2.609375 -4.84375 C 1.640625 -6.46875 1.15625 -8.296875 1.15625 -10.328125 C 1.15625 -12.347656 1.640625 -14.171875 2.609375 -15.796875 C 3.585938 -17.421875 4.9375 -18.691406 6.65625 -19.609375 C 8.375 -20.535156 10.304688 -21 12.453125 -21 C 14.597656 -21 16.523438 -20.535156 18.234375 -19.609375 C 19.941406 -18.691406 21.285156 -17.421875 22.265625 -15.796875 C 23.253906 -14.171875 23.75 -12.347656 23.75 -10.328125 C 23.75 -8.296875 23.253906 -6.46875 22.265625 -4.84375 C 21.285156 -3.226562 19.941406 -1.957031 18.234375 -1.03125 C 16.523438 -0.101562 14.597656 0.359375 12.453125 0.359375 Z M 12.453125 -3.71875 C 13.671875 -3.71875 14.769531 -4 15.75 -4.5625 C 16.738281 -5.125 17.507812 -5.90625 18.0625 -6.90625 C 18.625 -7.90625 18.90625 -9.046875 18.90625 -10.328125 C 18.90625 -11.609375 18.625 -12.75 18.0625 -13.75 C 17.507812 -14.75 16.738281 -15.53125 15.75 -16.09375 C 14.769531 -16.65625 13.671875 -16.9375 12.453125 -16.9375 C 11.234375 -16.9375 10.128906 -16.65625 9.140625 -16.09375 C 8.160156 -15.53125 7.390625 -14.75 6.828125 -13.75 C 6.265625 -12.75 5.984375 -11.609375 5.984375 -10.328125 C 5.984375 -9.046875 6.265625 -7.90625 6.828125 -6.90625 C 7.390625 -5.90625 8.160156 -5.125 9.140625 -4.5625 C 10.128906 -4 11.234375 -3.71875 12.453125 -3.71875 Z M 12.453125 -3.71875 "/></g></g><g style="fill:#ffffff;fill-opacity:1;"><g transform="translate(211.763926, 108.1268)"><path style="stroke:none" d="M 7.234375 -16.8125 L 7.234375 -11.359375 L 16.78125 -11.359375 L 16.78125 -7.515625 L 7.234375 -7.515625 L 7.234375 0 L 2.453125 0 L 2.453125 -20.65625 L 18.046875 -20.65625 L 18.046875 -16.8125 Z M 7.234375 -16.8125 "/></g></g><g style="fill:#ffffff;fill-opacity:1;"><g transform="translate(230.617065, 108.1268)"><path style="stroke:none" d="M 18.4375 -3.828125 L 18.4375 0 L 2.453125 0 L 2.453125 -20.65625 L 18.046875 -20.65625 L 18.046875 -16.8125 L 7.203125 -16.8125 L 7.203125 -12.328125 L 16.78125 -12.328125 L 16.78125 -8.609375 L 7.203125 -8.609375 L 7.203125 -3.828125 Z M 18.4375 -3.828125 "/></g></g><g style="fill:#ffffff;fill-opacity:1;"><g transform="translate(250.414347, 108.1268)"><path style="stroke:none" d="M 9.234375 0.359375 C 7.597656 0.359375 6.019531 0.140625 4.5 -0.296875 C 2.976562 -0.742188 1.753906 -1.320312 0.828125 -2.03125 L 2.453125 -5.640625 C 3.335938 -4.984375 4.390625 -4.457031 5.609375 -4.0625 C 6.828125 -3.675781 8.046875 -3.484375 9.265625 -3.484375 C 10.617188 -3.484375 11.617188 -3.679688 12.265625 -4.078125 C 12.921875 -4.484375 13.25 -5.019531 13.25 -5.6875 C 13.25 -6.1875 13.054688 -6.597656 12.671875 -6.921875 C 12.285156 -7.242188 11.789062 -7.503906 11.1875 -7.703125 C 10.59375 -7.898438 9.785156 -8.113281 8.765625 -8.34375 C 7.191406 -8.71875 5.898438 -9.09375 4.890625 -9.46875 C 3.890625 -9.84375 3.03125 -10.441406 2.3125 -11.265625 C 1.59375 -12.097656 1.234375 -13.203125 1.234375 -14.578125 C 1.234375 -15.773438 1.554688 -16.859375 2.203125 -17.828125 C 2.859375 -18.804688 3.835938 -19.578125 5.140625 -20.140625 C 6.453125 -20.710938 8.050781 -21 9.9375 -21 C 11.257812 -21 12.546875 -20.84375 13.796875 -20.53125 C 15.054688 -20.21875 16.160156 -19.765625 17.109375 -19.171875 L 15.640625 -15.546875 C 13.734375 -16.628906 11.820312 -17.171875 9.90625 -17.171875 C 8.570312 -17.171875 7.582031 -16.953125 6.9375 -16.515625 C 6.300781 -16.085938 5.984375 -15.519531 5.984375 -14.8125 C 5.984375 -14.101562 6.351562 -13.578125 7.09375 -13.234375 C 7.832031 -12.890625 8.957031 -12.550781 10.46875 -12.21875 C 12.039062 -11.84375 13.328125 -11.46875 14.328125 -11.09375 C 15.335938 -10.71875 16.203125 -10.125 16.921875 -9.3125 C 17.640625 -8.507812 18 -7.421875 18 -6.046875 C 18 -4.867188 17.664062 -3.789062 17 -2.8125 C 16.34375 -1.84375 15.351562 -1.070312 14.03125 -0.5 C 12.71875 0.0703125 11.117188 0.359375 9.234375 0.359375 Z M 9.234375 0.359375 "/></g></g><g style="fill:#ffffff;fill-opacity:1;"><g transform="translate(269.23799, 108.1268)"><path style="stroke:none" d="M 2.453125 -20.65625 L 7.234375 -20.65625 L 7.234375 0 L 2.453125 0 Z M 2.453125 -20.65625 "/></g></g><g style="fill:#ffffff;fill-opacity:1;"><g transform="translate(278.915346, 108.1268)"><path style="stroke:none" d="M 12.453125 0.359375 C 10.304688 0.359375 8.375 -0.101562 6.65625 -1.03125 C 4.9375 -1.957031 3.585938 -3.226562 2.609375 -4.84375 C 1.640625 -6.46875 1.15625 -8.296875 1.15625 -10.328125 C 1.15625 -12.347656 1.640625 -14.171875 2.609375 -15.796875 C 3.585938 -17.421875 4.9375 -18.691406 6.65625 -19.609375 C 8.375 -20.535156 10.304688 -21 12.453125 -21 C 14.597656 -21 16.523438 -20.535156 18.234375 -19.609375 C 19.941406 -18.691406 21.285156 -17.421875 22.265625 -15.796875 C 23.253906 -14.171875 23.75 -12.347656 23.75 -10.328125 C 23.75 -8.296875 23.253906 -6.46875 22.265625 -4.84375 C 21.285156 -3.226562 19.941406 -1.957031 18.234375 -1.03125 C 16.523438 -0.101562 14.597656 0.359375 12.453125 0.359375 Z M 12.453125 -3.71875 C 13.671875 -3.71875 14.769531 -4 15.75 -4.5625 C 16.738281 -5.125 17.507812 -5.90625 18.0625 -6.90625 C 18.625 -7.90625 18.90625 -9.046875 18.90625 -10.328125 C 18.90625 -11.609375 18.625 -12.75 18.0625 -13.75 C 17.507812 -14.75 16.738281 -15.53125 15.75 -16.09375 C 14.769531 -16.65625 13.671875 -16.9375 12.453125 -16.9375 C 11.234375 -16.9375 10.128906 -16.65625 9.140625 -16.09375 C 8.160156 -15.53125 7.390625 -14.75 6.828125 -13.75 C 6.265625 -12.75 5.984375 -11.609375 5.984375 -10.328125 C 5.984375 -9.046875 6.265625 -7.90625 6.828125 -6.90625 C 7.390625 -5.90625 8.160156 -5.125 9.140625 -4.5625 C 10.128906 -4 11.234375 -3.71875 12.453125 -3.71875 Z M 12.453125 -3.71875 "/></g></g><g style="fill:#ffffff;fill-opacity:1;"><g transform="translate(303.816834, 108.1268)"><path style="stroke:none" d="M 21.390625 -20.65625 L 21.390625 0 L 17.46875 0 L 7.171875 -12.53125 L 7.171875 0 L 2.453125 0 L 2.453125 -20.65625 L 6.40625 -20.65625 L 16.671875 -8.109375 L 16.671875 -20.65625 Z M 21.390625 -20.65625 "/></g></g><g style="fill:#ffffff;fill-opacity:1;"><g transform="translate(327.656196, 108.1268)"><path style="stroke:none" d="M 16.046875 -4.421875 L 6.453125 -4.421875 L 4.625 0 L -0.265625 0 L 8.9375 -20.65625 L 13.65625 -20.65625 L 22.890625 0 L 17.875 0 Z M 14.546875 -8.046875 L 11.265625 -15.953125 L 8 -8.046875 Z M 14.546875 -8.046875 "/></g></g><g style="fill:#ffffff;fill-opacity:1;"><g transform="translate(350.256353, 108.1268)"><path style="stroke:none" d="M 2.453125 -20.65625 L 7.234375 -20.65625 L 7.234375 -3.890625 L 17.578125 -3.890625 L 17.578125 0 L 2.453125 0 Z M 2.453125 -20.65625 "/></g></g></g></svg>