<svg xmlns="http://www.w3.org/2000/svg" version="1.1" xmlns:xlink="http://www.w3.org/1999/xlink" width="512" height="512" x="0" y="0" viewBox="0 0 310.42 310.42" style="enable-background:new 0 0 512 512" xml:space="preserve" class=""><circle r="155.21" cx="155.21" cy="155.21" fill="#d00007" shape="circle"></circle><g transform="matrix(0.7,0,0,0.7,46.56291275024415,46.563005447387695)"><path d="M273.586 214.965c49.111-49.111 49.11-129.021 0-178.132s-129.021-49.111-178.131 0C53.792 78.497 47.481 140.462 76.509 188.85c0 0 2.086 3.496-.73 6.312l-64.263 64.263c-12.79 12.79-15.837 30.675-4.493 42.02l1.953 1.951c11.343 11.345 29.229 8.301 42.02-4.49l64.128-64.128c2.95-2.951 6.448-.866 6.448-.866 48.385 29.026 110.351 22.717 152.014-18.947zM118.711 191.71c-36.288-36.288-36.287-95.332.001-131.62 36.287-36.287 95.332-36.288 131.618 0 36.289 36.287 36.289 95.332 0 131.62-36.287 36.287-95.331 36.287-131.619 0z" fill="#ffffff" opacity="1" data-original="#000000" class=""></path><path d="M190.987 163.91h-12.113c-4.399 0-8 3.6-8 8v12.111c0 4.399 3.601 8 8 8h12.113c4.399 0 8-3.601 8-8V171.91c0-4.4-3.6-8-8-8zM185.755 56.315h-1.65c-21.52 0-39.025 17.507-39.025 39.027 0 8.143 6.601 10.376 14.744 10.376 8.145 0 14.746-2.233 14.746-10.376 0-5.259 4.277-9.538 9.535-9.538h1.65c5.26 0 9.536 4.279 9.536 9.538 0 4.182-3.346 8.203-8.808 14.418-7.264 8.265-16.3 18.55-16.3 34.308 0 8.144 6.602 10.376 14.744 10.376 8.144 0 12.754-2.48 14.745-10.376 1.13-4.478 3.406-8.519 8.963-14.843 7.192-8.186 16.146-18.375 16.146-33.883.001-21.519-17.506-39.027-39.026-39.027z" fill="#ffffff" opacity="1" data-original="#000000" class=""></path></g></svg>